<svg xmlns="http://www.w3.org/2000/svg" viewBox="0 0 1280 720" width="1280" height="720" font-family="Aptos, 'Segoe UI', Arial, sans-serif" data-pptx-page-role="content">
  <rect id="bg" data-pptx-role="background" x="0" y="0" width="1280" height="720" fill="#FFFFFF" />

  <g id="section-kicker" data-pptx-role="chrome" data-pptx-bounds="40 30 540 30">
    <rect x="40" y="38" width="12" height="12" rx="3" fill="#1D3557" />
    <text x="62" y="50" font-size="16" font-weight="bold" letter-spacing="1.5" fill="#1D3557">MỞ ĐẦU · CÂU CHUYỆN XUYÊN SUỐT</text>
  </g>

  <g id="roadmap-tracker" data-pptx-role="chrome" data-pptx-bounds="600 14 640 62">
    <rect x="608" y="36" width="120" height="8" rx="3" fill="#6593C4" />
    <rect x="736" y="32" width="120" height="12" rx="3" fill="#4A7FB5" />
    <rect x="864" y="28" width="120" height="16" rx="3" fill="#2E5E91" />
    <rect x="992" y="24" width="120" height="20" rx="3" fill="#1D3557" />
    <rect x="1120" y="20" width="120" height="24" rx="3" fill="#64748B" />
    <text x="608" y="66" font-size="16" fill="#5B6675">1 Instructions</text>
    <text x="736" y="66" font-size="16" fill="#5B6675">2 Prompt</text>
    <text x="864" y="66" font-size="16" fill="#5B6675">3 Skill</text>
    <text x="992" y="66" font-size="16" fill="#5B6675">4 Plugin</text>
    <text x="1120" y="66" font-size="16" fill="#5B6675">Nâng cao</text>
  </g>

  <text font-size="42" font-weight="bold" fill="#1D3557" x="40" y="128">Coi ChatGPT là nhân viên mới rất giỏi:</text><text font-size="42" font-weight="bold" fill="#1D3557" x="40" y="178">dạy đúng 4 bước như khi nhận người vào phòng</text><g id="table-header" data-pptx-bounds="92 222 768 26">
    <text x="92" y="240" font-size="16" font-weight="bold" letter-spacing="1" fill="#5B6675">VỚI NHÂN VIÊN MỚI</text>
    <text x="476" y="240" font-size="16" font-weight="bold" letter-spacing="1" fill="#5B6675">VỚI CHATGPT</text>
  </g>

  <g id="row-1" data-pptx-bounds="40 256 820 84">
    <circle cx="60" cy="298" r="20" fill="#6593C4" />
    <text x="60" y="305" font-size="20" font-weight="bold" text-anchor="middle" fill="#FFFFFF">1</text>
    <rect x="92" y="256" width="372" height="84" rx="12" fill="#F3F6FA" />
    <text x="112" y="306" font-size="22" fill="#1F2937">Phát hồ sơ nhập môn, nội quy</text>
    <rect x="476" y="256" width="384" height="84" rx="12" fill="#FFFFFF" stroke="#D8E0EA" stroke-width="1.5" />
    <text font-size="22" fill="#1F2937" x="496" y="292">Khai báo một lần:</text><text font-size="22" fill="#1F2937" x="496" y="322">tôi là ai, luật chung</text></g>

  <g id="row-2" data-pptx-bounds="40 350 820 84">
    <circle cx="60" cy="392" r="20" fill="#4A7FB5" />
    <text x="60" y="399" font-size="20" font-weight="bold" text-anchor="middle" fill="#FFFFFF">2</text>
    <rect x="92" y="350" width="372" height="84" rx="12" fill="#F3F6FA" />
    <text x="112" y="400" font-size="22" fill="#1F2937">Giao việc bằng phiếu rõ ràng</text>
    <rect x="476" y="350" width="384" height="84" rx="12" fill="#FFFFFF" stroke="#D8E0EA" stroke-width="1.5" />
    <text x="496" y="400" font-size="22" fill="#1F2937">Giao việc theo công thức 4 phần</text>
  </g>

  <g id="row-3" data-pptx-bounds="40 444 820 84">
    <circle cx="60" cy="486" r="20" fill="#2E5E91" />
    <text x="60" y="493" font-size="20" font-weight="bold" text-anchor="middle" fill="#FFFFFF">3</text>
    <rect x="92" y="444" width="372" height="84" rx="12" fill="#F3F6FA" />
    <text x="112" y="494" font-size="22" fill="#1F2937">Dán quy trình chuẩn lên tường</text>
    <rect x="476" y="444" width="384" height="84" rx="12" fill="#FFFFFF" stroke="#D8E0EA" stroke-width="1.5" />
    <text x="496" y="494" font-size="22" fill="#1F2937">Đóng gói quy trình thành skill</text>
  </g>

  <g id="row-4" data-pptx-bounds="40 538 820 84">
    <circle cx="60" cy="580" r="20" fill="#1D3557" />
    <text x="60" y="587" font-size="20" font-weight="bold" text-anchor="middle" fill="#FFFFFF">4</text>
    <rect x="92" y="538" width="372" height="84" rx="12" fill="#F3F6FA" />
    <text font-size="22" fill="#1F2937" x="112" y="574">Cấp chìa khóa, bàn giao</text><text font-size="22" fill="#1F2937" x="112" y="604">thùng đồ nghề</text><rect x="476" y="538" width="384" height="84" rx="12" fill="#FFFFFF" stroke="#D8E0EA" stroke-width="1.5" />
    <text font-size="22" fill="#1F2937" x="496" y="574">Nối Gmail, Drive;</text><text font-size="22" fill="#1F2937" x="496" y="604">đóng gói thành plugin</text></g>

  <g id="no-skipping" data-pptx-bounds="884 226 356 396">
    <rect x="884" y="226" width="356" height="396" rx="16" fill="#FCEBDD" />
    
  <g transform="translate(908, 258) scale(1.25)" fill="none" stroke="#1D3557" stroke-width="2">
    <path d="M8 13v-7.5a1.5 1.5 0 0 1 3 0v6.5" />
    <path d="M11 5.5v-2a1.5 1.5 0 1 1 3 0v8.5" />
    <path d="M14 5.5a1.5 1.5 0 0 1 3 0v6.5" />
    <path d="M17 7.5a1.5 1.5 0 0 1 3 0v8.5a6 6 0 0 1 -6 6h-2h.208a6 6 0 0 1 -5.012 -2.7a69.74 69.74 0 0 1 -.196 -.3c-.312 -.479 -1.407 -2.388 -3.286 -5.728a1.5 1.5 0 0 1 .536 -2.022a1.867 1.867 0 0 1 2.28 .28l1.47 1.47" />
  </g>
    <text x="948" y="283" font-size="28" font-weight="bold" fill="#1D3557">Đừng nhảy cóc</text>
    <text x="908" y="340" font-size="20" font-weight="bold" fill="#1D3557">Instructions kém</text>
    <text x="908" y="368" font-size="20" fill="#1F2937">→ prompt nào cũng phải dặn lại</text>
    <line x1="908" y1="394" x2="1216" y2="394" stroke="#E8833A" stroke-width="1" stroke-opacity="0.5" />
    <text x="908" y="430" font-size="20" font-weight="bold" fill="#1D3557">Prompt chưa vững</text>
    <text font-size="20" fill="#1F2937" x="908" y="458">→ không biết đóng gói gì</text><text font-size="20" fill="#1F2937" x="908" y="486">vào skill</text><line x1="908" y1="510" x2="1216" y2="510" stroke="#E8833A" stroke-width="1" stroke-opacity="0.5" />
    <text x="908" y="546" font-size="20" font-weight="bold" fill="#1D3557">Skill chưa chuẩn</text>
    <text font-size="20" fill="#1F2937" x="908" y="574">→ plugin nhân bản cái sai</text><text font-size="20" fill="#1F2937" x="908" y="602">nhanh hơn</text></g>

  <text id="footer-course" data-pptx-role="footer" x="40" y="700" font-size="14" fill="#5B6675">Lộ trình đào tạo AI trên ChatGPT · Wir Group</text>
  <text id="page-number" data-pptx-role="page-number" x="1240" y="700" font-size="14" text-anchor="end" fill="#5B6675">03 / 32</text>
</svg>