<svg xmlns="http://www.w3.org/2000/svg" viewBox="0 0 1280 720" width="1280" height="720" font-family="Aptos, 'Segoe UI', Arial, sans-serif" data-pptx-page-role="content">
  <rect id="bg" data-pptx-role="background" x="0" y="0" width="1280" height="720" fill="#FFFFFF" />

  <g id="section-kicker" data-pptx-role="chrome" data-pptx-bounds="40 30 540 30">
    <rect x="40" y="38" width="12" height="12" rx="3" fill="#1D3557" />
    <text x="62" y="50" font-size="16" font-weight="bold" letter-spacing="1.5" fill="#1D3557">TẦNG 4 · PLUGIN</text>
  </g>

    <g id="demo-flag" data-pptx-role="chrome" data-pptx-bounds="400 30 180 28">
    <rect x="400" y="32" width="172" height="24" rx="12" fill="#E8833A" />
    <text x="486" y="49" font-size="12" font-weight="bold" letter-spacing="1" fill="#FFFFFF" text-anchor="middle">▶ CÓ DEMO KÈM FILE</text>
  </g>

  <g id="roadmap-tracker" data-pptx-role="chrome" data-pptx-bounds="600 14 640 62">
    <rect x="608" y="36" width="120" height="8" rx="3" fill="#E3E9F1" />
    <rect x="736" y="32" width="120" height="12" rx="3" fill="#E3E9F1" />
    <rect x="864" y="28" width="120" height="16" rx="3" fill="#E3E9F1" />
    <rect x="992" y="24" width="120" height="20" rx="3" fill="#E8833A" />
    <rect x="1120" y="20" width="120" height="24" rx="3" fill="#E3E9F1" />
    <text x="608" y="66" font-size="16" fill="#5B6675">1 Instructions</text>
    <text x="736" y="66" font-size="16" fill="#5B6675">2 Prompt</text>
    <text x="864" y="66" font-size="16" fill="#5B6675">3 Skill</text>
    <text x="992" y="66" font-size="16" font-weight="bold" fill="#1F2937">4 Plugin</text>
    <text x="1120" y="66" font-size="16" fill="#5B6675">Nâng cao</text>
  </g>

  <text font-size="42" font-weight="bold" fill="#1D3557" x="40" y="128">Chỉ tự động việc lặp lại, quy tắc rõ, sai sửa được —</text><text font-size="42" font-weight="bold" fill="#1D3557" x="40" y="178">và luôn giữ hai lớp phanh</text><g id="automate-when" data-pptx-bounds="40 222 400 150">
    <rect x="40" y="222" width="400" height="150" rx="16" fill="#F3F6FA" />
    <text x="64" y="252" font-size="16" font-weight="bold" letter-spacing="1" fill="#1D3557">CHỈ TỰ ĐỘNG KHI</text>
    
  <g transform="translate(64, 273) scale(0.916667)" fill="none" stroke="#2E8B57" stroke-width="2">
    <path d="M3 12a9 9 0 1 0 18 0a9 9 0 1 0 -18 0" />
    <path d="M9 12l2 2l4 -4" />
  </g>
    <text x="96" y="291" font-size="20" fill="#1F2937">Việc lặp lại đều đặn</text>
    
  <g transform="translate(64, 305) scale(0.916667)" fill="none" stroke="#2E8B57" stroke-width="2">
    <path d="M3 12a9 9 0 1 0 18 0a9 9 0 1 0 -18 0" />
    <path d="M9 12l2 2l4 -4" />
  </g>
    <text x="96" y="323" font-size="20" fill="#1F2937">Quy tắc rõ ràng</text>
    
  <g transform="translate(64, 337) scale(0.916667)" fill="none" stroke="#2E8B57" stroke-width="2">
    <path d="M3 12a9 9 0 1 0 18 0a9 9 0 1 0 -18 0" />
    <path d="M9 12l2 2l4 -4" />
  </g>
    <text x="96" y="355" font-size="20" fill="#1F2937">Làm sai thì sửa được</text>
  </g>

  <g id="automate-never" data-pptx-bounds="40 388 400 150">
    <rect x="40" y="388" width="400" height="150" rx="16" fill="#FFFFFF" stroke="#C0392B" stroke-width="1.5" />
    <text x="64" y="418" font-size="16" font-weight="bold" letter-spacing="1" fill="#C0392B">KHÔNG TỰ ĐỘNG</text>
    
  <g transform="translate(64, 439) scale(0.916667)" fill="none" stroke="#C0392B" stroke-width="2">
    <path d="M3 12a9 9 0 1 0 18 0a9 9 0 1 0 -18 0" />
    <path d="M5.7 5.7l12.6 12.6" />
  </g>
    <text x="96" y="457" font-size="20" fill="#1F2937">Việc dính tới tiền</text>
    
  <g transform="translate(64, 471) scale(0.916667)" fill="none" stroke="#C0392B" stroke-width="2">
    <path d="M3 12a9 9 0 1 0 18 0a9 9 0 1 0 -18 0" />
    <path d="M5.7 5.7l12.6 12.6" />
  </g>
    <text x="96" y="489" font-size="20" fill="#1F2937">Cam kết với khách</text>
    
  <g transform="translate(64, 503) scale(0.916667)" fill="none" stroke="#C0392B" stroke-width="2">
    <path d="M3 12a9 9 0 1 0 18 0a9 9 0 1 0 -18 0" />
    <path d="M5.7 5.7l12.6 12.6" />
  </g>
    <text x="96" y="521" font-size="20" fill="#1F2937">Quy trình còn loạn</text>
  </g>

  <g id="flow-label" data-pptx-bounds="470 222 770 24">
    <text x="470" y="240" font-size="16" font-weight="bold" letter-spacing="1" fill="#5B6675">LUỒNG TỰ ĐỘNG 3 LỚP</text>
  </g>

  <g id="flow-trigger" data-pptx-bounds="470 256 240 60">
    <g id="p30-trigger" data-pptx-authoring="preset" data-pptx-object="shape" data-pptx-prst="homePlate" data-pptx-frame="470 256 240 60" fill="#1D3557" stroke="none">
      <path d="M 470 256 L 680 256 L 710 286 L 680 316 L 470 316 Z" />
    </g>
    <text x="492" y="294" font-size="22" font-weight="bold" fill="#FFFFFF">Kích hoạt</text>
  </g>

  <g id="flow-process" data-pptx-bounds="722 256 240 60">
    <g id="p30-process" data-pptx-authoring="preset" data-pptx-object="shape" data-pptx-prst="chevron" data-pptx-frame="722 256 240 60" fill="#1D3557" stroke="none">
      <path d="M 722 256 L 932 256 L 962 286 L 932 316 L 722 316 L 752 286 Z" />
    </g>
    <text x="772" y="294" font-size="22" font-weight="bold" fill="#FFFFFF">Xử lý</text>
  </g>

  <g id="flow-output" data-pptx-bounds="1000 256 240 60">
    <g id="p30-output" data-pptx-authoring="preset" data-pptx-object="shape" data-pptx-prst="chevron" data-pptx-frame="1000 256 240 60" fill="#1D3557" stroke="none">
      <path d="M 1000 256 L 1210 256 L 1240 286 L 1210 316 L 1000 316 L 1030 286 Z" />
    </g>
    <text x="1050" y="294" font-size="22" font-weight="bold" fill="#FFFFFF">Đưa ra</text>
  </g>

  <g id="flow-gate" data-pptx-bounds="930 262 102 80">
    <circle cx="981" cy="286" r="22" fill="#E8833A" stroke="#FFFFFF" stroke-width="3" />
    
  <g transform="translate(970, 275) scale(0.916667)" fill="none" stroke="#1F2937" stroke-width="2">
    <path d="M8 13v-7.5a1.5 1.5 0 0 1 3 0v6.5" />
    <path d="M11 5.5v-2a1.5 1.5 0 1 1 3 0v8.5" />
    <path d="M14 5.5a1.5 1.5 0 0 1 3 0v6.5" />
    <path d="M17 7.5a1.5 1.5 0 0 1 3 0v8.5a6 6 0 0 1 -6 6h-2h.208a6 6 0 0 1 -5.012 -2.7a69.74 69.74 0 0 1 -.196 -.3c-.312 -.479 -1.407 -2.388 -3.286 -5.728a1.5 1.5 0 0 1 .536 -2.022a1.867 1.867 0 0 1 2.28 .28l1.47 1.47" />
  </g>
    <text x="981" y="336" font-size="16" font-weight="bold" text-anchor="middle" fill="#1D3557">Người duyệt</text>
  </g>

  <g id="flow-example" data-pptx-bounds="470 352 770 122">
    <rect x="470" y="352" width="770" height="122" rx="14" fill="#F3F6FA" />
    <text x="494" y="380" font-size="16" font-weight="bold" letter-spacing="1" fill="#5B6675">VÍ DỤ WIR · BÁO CÁO TUẦN</text>
    <text font-size="20" fill="#1F2937" x="494" y="410">07:00 thứ Hai: đọc file đơn hàng tuần trên Drive → lập bảng</text><text font-size="20" fill="#1F2937" x="494" y="436"><tspan>doanh thu theo sản phẩm, đánh dấu cảnh báo → <tspan font-weight="bold" fill="#1D3557">Trưởng phòng</tspan></tspan></text><text font-size="20" fill="#1F2937" x="494" y="462"><tspan><tspan font-weight="bold" fill="#1D3557">duyệt</tspan> → gửi Ban giám đốc</tspan></text></g>

  <g id="flow-brakes" data-pptx-bounds="470 488 770 76">
    <rect x="470" y="490" width="220" height="34" rx="17" fill="#FCEBDD" />
    <text x="486" y="513" font-size="18" font-weight="bold" fill="#1D3557">Phanh 1 · Người duyệt</text>
    <rect x="700" y="490" width="316" height="34" rx="17" fill="#FCEBDD" />
    <text x="716" y="513" font-size="18" font-weight="bold" fill="#1D3557">Phanh 2 · Hẹn giờ để còn kịp hủy</text>
    
  <g transform="translate(470, 538) scale(0.916667)" fill="none" stroke="#1D3557" stroke-width="2">
    <path d="M14 3v4a1 1 0 0 0 1 1h4" />
    <path d="M17 21h-10a2 2 0 0 1 -2 -2v-14a2 2 0 0 1 2 -2h7l5 5v11a2 2 0 0 1 -2 2" />
    <path d="M9 9l1 0" />
    <path d="M9 13l6 0" />
    <path d="M9 17l6 0" />
  </g>
    <text x="502" y="556" font-size="20" fill="#1F2937">Ghi log: lúc chạy, kết quả, ai duyệt</text>
  </g>

  <g id="automation-tools" data-pptx-bounds="40 584 1200 50">
    <text x="40" y="614" font-size="16" font-weight="bold" letter-spacing="1" fill="#5B6675">CÔNG CỤ</text>
    <rect x="130" y="590" width="252" height="36" rx="18" fill="#FFFFFF" stroke="#D8E0EA" stroke-width="1.5" />
    <text x="146" y="614" font-size="18" fill="#1F2937"><tspan font-weight="bold" fill="#1D3557">Scheduled task</tspan> · theo lịch</text>
    <rect x="392" y="590" width="372" height="36" rx="18" fill="#FFFFFF" stroke="#D8E0EA" stroke-width="1.5" />
    <text x="408" y="614" font-size="18" fill="#1F2937"><tspan font-weight="bold" fill="#1D3557">Task theo sự kiện</tspan> · thư Gmail mới, Slack</text>
    <rect x="774" y="590" width="440" height="36" rx="18" fill="#FFFFFF" stroke="#D8E0EA" stroke-width="1.5" />
    <text x="790" y="614" font-size="18" fill="#1F2937"><tspan font-weight="bold" fill="#1D3557">ChatGPT Work</tspan> · giao trọn mục tiêu nhiều bước</text>
  </g>

  <text id="footer-course" data-pptx-role="footer" x="40" y="700" font-size="14" fill="#5B6675">Lộ trình đào tạo AI trên ChatGPT · Wir Group</text>
  <text id="source-note" data-pptx-role="footer" x="1170" y="700" font-size="14" text-anchor="end" fill="#5B6675">Ví dụ minh hoạ trên dữ liệu demo đơn hàng Wir</text>
  <text id="page-number" data-pptx-role="page-number" x="1240" y="700" font-size="14" text-anchor="end" fill="#5B6675">30 / 35</text>
</svg>